<svg id="Capa_1" data-name="Capa 1" xmlns="http://www.w3.org/2000/svg" viewBox="0 0 730.55 112.32"><defs><style>.cls-1{fill:#6b6b6a;}.cls-2{fill:#e3242d;}</style></defs><title>logo_inycom_2013_horizontal_1</title><path class="cls-1" d="M747.65,81.94a65.71,65.71,0,0,0-8.82-.84c-4.31,0-8.72,1.59-8.72,7,0,4.75,2.63,5.84,8.57,6.79,5.3.84,6.79,1.44,6.79,4.41,0,3.86-2.48,4.85-6.79,4.85a79.5,79.5,0,0,1-8.07-.84l-.2,2.63a72.5,72.5,0,0,0,8.52.89c5.94,0,9.56-1.88,9.56-7.68,0-4.75-2.43-5.94-8.91-7-5.2-.79-6.44-1.58-6.44-4.16,0-3.37,2.72-4.21,5.84-4.21a76.83,76.83,0,0,1,8.57.79ZM706.2,92.69c0-6.44,2.67-9,7.18-9s6.79,2.43,6.79,9Zm6.88,11.39c-5.2,0-6.88-3.07-6.88-8.92H723l.1-2.38c0-8.32-3.37-11.69-9.76-11.69-6,0-10.2,3.37-10.2,12.93,0,8.27,2.23,12.73,9.61,12.78,3.86,0,9.46-.69,9.46-.69l-.1-2.48s-5.45.45-9.06.45m-21-28.73h3V71.64h-3Zm0,31h3V81.54h-3ZM672.45,95.17c-4.46,0-5.79-1.83-5.79-5.7,0-4.41,2-5.79,5.89-5.79,4.61,0,6.24,1,6.24,5.79,0,4.31-1.83,5.7-6.34,5.7m2.58,10.5c4.66,0,6.44.45,6.44,4.66,0,3.67-2.33,5.15-7.73,5.15-6.09,0-7.43-1.39-7.43-5.25,0-2.13.74-3.07,3.12-4.75,0,0,3.71.2,5.6.2m-1.34,12.48c7.13,0,10.85-2.33,10.85-7.93,0-6-2.58-7.18-9.31-7.18-5.89,0-6.29-.3-6.29-2.43a17.23,17.23,0,0,1,1-3.07,23.29,23.29,0,0,0,2.53.2c6.34,0,9.36-1.93,9.36-8.27,0-2.92-.64-4.26-1.68-5.3h4.8V81.54l-7.13.15a25.13,25.13,0,0,0-5.2-.64c-5.4,0-8.91,2.38-8.91,8.42,0,4.65,1.88,6.59,4,7.48,0,0-1.59,3-1.59,3.86,0,1.53.4,2.82,1.24,3.37-2.62,1.93-4,3.22-4,6.24,0,5.89,2.38,7.73,10.35,7.73m-27.43-14c-6.39,0-7.43-3.07-7.43-10.6s1.73-9.76,7.43-9.76c5.05,0,7.23,2.72,7.23,9.81s-.84,10.55-7.23,10.55m0-23c-7.68,0-10.45,3.67-10.45,12.43,0,9.36,2.13,13.27,10.45,13.27s10.3-4.36,10.3-13.22c0-8.67-3.12-12.48-10.3-12.48m-21.7,25.21h3V70.55h-3Zm-18.63-2.18c-6.39,0-7.43-3.07-7.43-10.6s1.74-9.76,7.43-9.76c5.05,0,7.23,2.72,7.23,9.81s-.84,10.55-7.23,10.55m0-23c-7.68,0-10.45,3.67-10.45,12.43,0,9.36,2.13,13.27,10.45,13.27s10.3-4.36,10.3-13.22c0-8.67-3.12-12.48-10.3-12.48m-35,25.21V85.9a19.45,19.45,0,0,1,7.68-2.08c4.9,0,5.7,2.43,5.7,9.66v12.83h2.92V93.43c0-9.21-1.49-12.33-8.27-12.33-3.76,0-8,2.23-8,2.23V81.54h-3v24.76Zm-28.68,0V85.46a23.54,23.54,0,0,1,7.68-1.63c4.85,0,5.65,2.43,5.65,9.66v12.83h3V93.43c0-9.21-1.49-12.33-8.27-12.33a24.84,24.84,0,0,0-8,1.73v-13h-3v36.5ZM525,81.1c-7.38,0-10.2,3.32-10.2,12.38,0,9.76,2.13,13.32,10.15,13.32,2.13,0,6.59-.6,6.59-.6l-.15-2.62s-4,.45-5.89.45c-6.44,0-7.68-2.87-7.68-10.55,0-7.08,1.73-9.61,7.68-9.61,1.88,0,5.84.45,5.84.45l.1-2.63s-4.31-.6-6.44-.6M490.82,92.69c0-6.44,2.67-9,7.18-9s6.78,2.43,6.78,9Zm6.88,11.39c-5.2,0-6.88-3.07-6.88-8.92h16.84l.1-2.38c0-8.32-3.37-11.69-9.76-11.69-6,0-10.2,3.37-10.2,12.93,0,8.27,2.23,12.73,9.61,12.78,3.86,0,9.46-.69,9.46-.69l-.1-2.48s-5.45.45-9.06.45M481.89,84.27V81.54h-8.27V73.77h-3v7.78H467v2.72h3.67V97.89c0,7.13,1.78,9,6.64,9a46.12,46.12,0,0,0,5-.49l-.15-2.62s-3.22.35-4.61.35c-3.52,0-3.91-1.58-3.91-7.78v-12Z" transform="translate(-17.94 -16.46)"/><path class="cls-1" d="M682.74,56.78V36.37a19.45,19.45,0,0,1,7.68-2.08c4.9,0,5.7,2.43,5.7,9.66V56.78H699V43.9c0-9.21-1.49-12.33-8.27-12.33-3.76,0-8,2.23-8,2.23V32h-3V56.78ZM661.08,54.6c-6.39,0-7.43-3.07-7.43-10.6s1.73-9.76,7.43-9.76c5.05,0,7.23,2.72,7.23,9.81s-.84,10.55-7.23,10.55m0-23c-7.68,0-10.45,3.66-10.45,12.43,0,9.36,2.13,13.27,10.45,13.27s10.3-4.36,10.3-13.23c0-8.67-3.12-12.48-10.3-12.48m-21.6-5.75h3V22.11h-3Zm0,31h3V32h-3Zm-7.54-22V32h-8.27V24.24h-3V32H617v2.72h3.66V48.36c0,7.13,1.78,9,6.64,9a46.12,46.12,0,0,0,5-.49l-.15-2.62s-3.22.35-4.61.35c-3.52,0-3.91-1.59-3.91-7.78v-12Zm-25,9.46V53a29.6,29.6,0,0,1-8.77,1.68c-2.43,0-3.86-1.73-3.86-4.9,0-2.72,1.24-4.51,4.56-4.8Zm2.92-4.71c0-5.45-2.43-7.92-7.58-7.92a77.73,77.73,0,0,0-9.71.94l.2,2.63s5.8-.74,9.41-.74c3.07,0,4.76,1.54,4.76,5.1v2.23l-8.42.84c-5.05.45-7.28,2.67-7.28,7.23,0,4.85,2.43,7.48,6.59,7.48a26.88,26.88,0,0,0,9.51-1.93c1.24,1.39,2.92,1.88,5.6,1.88l.15-2.57c-1.64-.2-3.07-.69-3.22-2.23ZM564.48,32l7.23,24.76h6.49L585.53,32h-3.07L576,54.21H574L567.6,32ZM548.82,54.6c-6.39,0-7.43-3.07-7.43-10.6s1.73-9.76,7.43-9.76c5.05,0,7.23,2.72,7.23,9.81s-.84,10.55-7.23,10.55m0-23c-7.68,0-10.45,3.66-10.45,12.43,0,9.36,2.13,13.27,10.45,13.27s10.3-4.36,10.3-13.23c0-8.67-3.12-12.48-10.3-12.48m-35,25.21V36.37a19.45,19.45,0,0,1,7.68-2.08c4.9,0,5.7,2.43,5.7,9.66V56.78h2.92V43.9c0-9.21-1.49-12.33-8.27-12.33-3.76,0-8,2.23-8,2.23V32h-3V56.78Zm-28.81,0V36.37a19.45,19.45,0,0,1,7.68-2.08c4.9,0,5.7,2.43,5.7,9.66V56.78h2.92V43.9c0-9.21-1.49-12.33-8.27-12.33-3.77,0-8,2.23-8,2.23V32h-3V56.78Zm-15.36-31h3V22.11h-3Zm0,31h3V32h-3Z" transform="translate(-17.94 -16.46)"/><path class="cls-1" d="M353.36,61.82h12.11v4.94a14.2,14.2,0,0,1,4.34-4.06A11.3,11.3,0,0,1,376,60.87a13.17,13.17,0,0,1,6.91,1.62A9.74,9.74,0,0,1,386.83,67a13.51,13.51,0,0,1,11.48-6.08q7,0,9.86,3.64t2.89,10.87V95H397.87V78.11q0-3.74-1-5.29a3.76,3.76,0,0,0-3.49-1.55,3.71,3.71,0,0,0-3.65,1.93,12.16,12.16,0,0,0-1,5.42V95H375.61V78.11q0-3.74-1-5.29a3.76,3.76,0,0,0-3.49-1.55,3.71,3.71,0,0,0-3.64,1.93,12.16,12.16,0,0,0-1,5.42V95H353.36Zm-40,3.77q5.13-4.72,13.7-4.72,8.75,0,13.85,4.72T346,78.11a20,20,0,0,1-1.43,7.83,15.1,15.1,0,0,1-4,5.61,16.74,16.74,0,0,1-6,3.33A24.48,24.48,0,0,1,327.11,96q-8.31,0-13.6-4.47t-5.29-12.71q0-8.49,5.14-13.22m11.13,4.91a5.21,5.21,0,0,0-1.81,2,10.45,10.45,0,0,0-1,2.66,13.94,13.94,0,0,0-.32,3q0,4.56,1.52,6.78a5.09,5.09,0,0,0,8.4,0q1.49-2.22,1.49-6.78a11.06,11.06,0,0,0-1.49-6,4.62,4.62,0,0,0-4.09-2.34,5,5,0,0,0-2.76.76m-36.24,4a4.71,4.71,0,0,0-1.39-3.42,4.38,4.38,0,0,0-3.42-1.33,4.86,4.86,0,0,0-2.92.82,5.55,5.55,0,0,0-1.77,2.15,9.88,9.88,0,0,0-.86,2.85,22.27,22.27,0,0,0-.22,3.23,11,11,0,0,0,1.46,6.08,4.82,4.82,0,0,0,4.31,2.22A4.57,4.57,0,0,0,287,85.75a6.71,6.71,0,0,0,1.52-3.58h13.32a15.2,15.2,0,0,1-2,6.31,13.55,13.55,0,0,1-4.22,4.4,17.51,17.51,0,0,1-5.55,2.35,28.34,28.34,0,0,1-6.69.76,23.82,23.82,0,0,1-7.51-1.14,17.76,17.76,0,0,1-6-3.33,14.91,14.91,0,0,1-4-5.42,18,18,0,0,1-1.43-7.35,19.27,19.27,0,0,1,1.39-7.51,15.78,15.78,0,0,1,3.93-5.64,17.11,17.11,0,0,1,6-3.52,23.18,23.18,0,0,1,7.61-1.2,27.38,27.38,0,0,1,6.53.76A17.87,17.87,0,0,1,295.56,64a13.54,13.54,0,0,1,4.12,4.28,14,14,0,0,1,1.93,6.18Zm-45.41,7.8,5.77-20.47h12.68l-10.65,31Q249,97.38,248,99.69a11.56,11.56,0,0,1-2.66,3.8,9.62,9.62,0,0,1-4.25,2.15,30,30,0,0,1-7.07.67q-1.59,0-4.06-.19-1.33-.06-1.78-.06V96.87q.63,0,1.4.06h1.33q4.31,0,4.31-2.35a8,8,0,0,0-.57-2.54L223.74,61.82H237ZM183.29,61.82h12V67a17.14,17.14,0,0,1,5-4.63,12.27,12.27,0,0,1,6.25-1.52q6.47,0,9.67,3.64t3.2,10.62V95H206.24V77.48a8.73,8.73,0,0,0-1-4.53,3.87,3.87,0,0,0-3.61-1.68q-2.85,0-4,1.71a9.33,9.33,0,0,0-1.14,5.13V95H183.29ZM158.34,50.16h15V95h-15Z" transform="translate(-17.94 -16.46)"/><path class="cls-1" d="M60.06,38.92A16.85,16.85,0,1,0,43.21,55.77,16.85,16.85,0,0,0,60.06,38.92m0,88V61.38H19.11a55.89,55.89,0,0,0,40.95,65.55" transform="translate(-17.94 -16.46)"/><path class="cls-2" d="M130.26,72.61A55.77,55.77,0,0,0,65.68,17.15V58.1a16.68,16.68,0,0,1,8.42-2.34,16.85,16.85,0,1,1,0,33.7,16.68,16.68,0,0,1-8.42-2.34v40.95a55.77,55.77,0,0,0,64.58-55.46" transform="translate(-17.94 -16.46)"/></svg>